<?xml version="1.0" encoding="utf-8"?>
<!-- Generator: Adobe Illustrator 26.0.0, SVG Export Plug-In . SVG Version: 6.00 Build 0)  -->
<svg version="1.1" id="Lag_1" xmlns="http://www.w3.org/2000/svg" xmlns:xlink="http://www.w3.org/1999/xlink" x="0px" y="0px"
	 viewBox="0 0 204 204" style="enable-background:new 0 0 204 204;" xml:space="preserve">
<style type="text/css">
	.st0{fill:url(#SVGID_1_);}
	.st1{fill:#FFFFFF;}
</style>
<linearGradient id="SVGID_1_" gradientUnits="userSpaceOnUse" x1="6.3356" y1="250.9912" x2="196.5054" y2="250.2928" gradientTransform="matrix(1 0 0 -1 0 280)">
	<stop  offset="0" style="stop-color:#003B00"/>
	<stop  offset="1" style="stop-color:#00FF2B"/>
</linearGradient>
<path class="st0" d="M17.3,45.2C23.9,34,33.9,24.9,44.9,17.5C66.2,3.1,92.1-2.7,117.4,1.2c21.9,3.3,42,13.7,57.4,29.4
	c4.7,4.8,2.9,13-3.7,15.9c-4.3,1.9-9.4,0.7-12.8-2.6c-12-11.6-27.4-19.3-44-21.9c-20.2-3.1-40.7,1.6-57.6,13
	c-10.5,7.1-14.6,13.5-21,19.3c-9.5,8.7-22.5,2.4-19.1-7.4"/>
<g>
	<path class="st1" d="M57.3,96.9h5.1c0.6,0,1.2,0.1,1.8,0.3c0.5,0.2,1,0.4,1.4,0.7s0.7,0.7,0.9,1.2c0.2,0.5,0.3,1,0.3,1.6
		c0,0.6-0.1,1.2-0.4,1.6c-0.3,0.5-0.7,0.8-1.2,1.1c0.8,0.3,1.4,0.7,1.8,1.3s0.6,1.3,0.6,2.1c0,0.6-0.1,1.2-0.4,1.7s-0.6,0.9-1,1.3
		c-0.4,0.4-1,0.6-1.6,0.8c-0.6,0.2-1.3,0.3-2.1,0.3h-5.4v-14H57.3z M62.1,102.4c0.5,0,1-0.1,1.3-0.4s0.5-0.6,0.5-1.1
		s-0.2-0.9-0.5-1.1c-0.3-0.3-0.8-0.4-1.3-0.4h-1.9v3.1h1.9V102.4z M62.5,108.4c0.6,0,1.2-0.1,1.5-0.4c0.3-0.3,0.6-0.7,0.6-1.3
		c0-0.6-0.2-1-0.6-1.3c-0.4-0.3-0.9-0.5-1.5-0.5h-2.3v3.5C60.2,108.3,62.5,108.3,62.5,108.4z"/>
	<path class="st1" d="M79.2,108.6c-0.4,0.8-1,1.5-1.8,1.9c-0.8,0.4-1.7,0.7-2.8,0.7c-0.8,0-1.5-0.1-2.1-0.4s-1.2-0.6-1.6-1.1
		s-0.8-1-1.1-1.6c-0.3-0.6-0.4-1.3-0.4-2.1c0-0.7,0.1-1.4,0.4-2.1c0.3-0.6,0.6-1.2,1.1-1.7s1-0.8,1.6-1.1c0.6-0.3,1.3-0.4,2-0.4
		s1.4,0.1,2.1,0.4s1.1,0.6,1.6,1.1c0.4,0.5,0.8,1,1,1.7c0.2,0.6,0.4,1.4,0.4,2.1c0,0.2,0,0.3,0,0.4c0,0.1,0,0.2,0,0.3h-7.3
		c0,0.3,0.1,0.6,0.2,0.8c0.1,0.2,0.3,0.4,0.5,0.6s0.5,0.3,0.7,0.4c0.3,0.1,0.6,0.1,0.9,0.1c0.5,0,1-0.1,1.3-0.3
		c0.3-0.2,0.6-0.5,0.8-0.9L79.2,108.6z M76.7,104.9c-0.1-0.5-0.3-1-0.7-1.3c-0.4-0.3-0.9-0.5-1.5-0.5c-0.3,0-0.6,0-0.8,0.1
		c-0.3,0.1-0.5,0.2-0.7,0.4c-0.2,0.2-0.4,0.4-0.5,0.6s-0.2,0.4-0.2,0.7C72.3,104.8,76.7,104.8,76.7,104.9z"/>
	<path class="st1" d="M88.7,109.4c-0.3,0.5-0.7,0.8-1.3,1.1c-0.5,0.3-1.1,0.4-1.8,0.4c-0.7,0-1.3-0.1-1.9-0.4s-1.1-0.6-1.5-1
		c-0.4-0.4-0.7-1-1-1.6c-0.2-0.6-0.3-1.3-0.3-2s0.1-1.4,0.3-2c0.2-0.6,0.6-1.2,1-1.6c0.4-0.5,0.9-0.8,1.5-1.1
		c0.6-0.3,1.2-0.4,1.9-0.4s1.3,0.1,1.8,0.4c0.6,0.3,1,0.6,1.2,1.1v-1.3h2.9v9.2c0,0.8-0.1,1.5-0.4,2.1c-0.2,0.6-0.6,1.2-1.1,1.7
		s-1,0.8-1.7,1.1c-0.7,0.3-1.4,0.4-2.3,0.4c-1.2,0-2.2-0.2-3-0.7s-1.5-1.1-1.9-1.9l2.3-1.4c0.3,0.5,0.6,0.9,1.1,1.1s1,0.4,1.5,0.4
		c0.8,0,1.4-0.2,1.9-0.7s0.7-1.2,0.7-2L88.7,109.4L88.7,109.4z M88.8,105.9c0-0.3-0.1-0.7-0.2-1s-0.3-0.6-0.5-0.8
		c-0.2-0.2-0.5-0.4-0.8-0.5c-0.3-0.1-0.6-0.2-0.9-0.2s-0.6,0.1-1,0.2c-0.3,0.1-0.6,0.3-0.8,0.5c-0.2,0.2-0.4,0.5-0.5,0.8
		s-0.2,0.6-0.2,1c0,0.3,0.1,0.7,0.2,1s0.3,0.6,0.5,0.8c0.2,0.2,0.5,0.4,0.8,0.5c0.3,0.1,0.6,0.2,1,0.2c0.3,0,0.6-0.1,0.9-0.2
		c0.3-0.1,0.6-0.3,0.8-0.5s0.4-0.5,0.5-0.8C88.7,106.4,88.8,106.2,88.8,105.9z"/>
	<path class="st1" d="M97.3,98.2c0,0.2,0,0.4-0.1,0.7c-0.1,0.2-0.2,0.4-0.4,0.5c-0.2,0.2-0.3,0.3-0.5,0.4c-0.2,0.1-0.4,0.1-0.7,0.1
		c-0.2,0-0.5,0-0.7-0.1c-0.2-0.1-0.4-0.2-0.5-0.4c-0.1-0.2-0.3-0.3-0.4-0.5s-0.1-0.4-0.1-0.7c0-0.2,0-0.4,0.1-0.6s0.2-0.4,0.4-0.5
		c0.2-0.2,0.3-0.3,0.5-0.4c0.2-0.1,0.4-0.1,0.7-0.1c0.2,0,0.5,0,0.7,0.1c0.2,0.1,0.4,0.2,0.5,0.4c0.2,0.2,0.3,0.3,0.4,0.5
		C97.2,97.7,97.3,97.9,97.3,98.2z M94.1,110.9v-9.9H97v9.9H94.1z"/>
	<path class="st1" d="M102.5,110.9h-2.9v-9.9h2.9v1.3c0.3-0.5,0.7-0.9,1.2-1.1c0.5-0.3,1.1-0.4,1.7-0.4c1.1,0,2,0.4,2.7,1.1
		c0.6,0.7,1,1.7,1,3v6.1h-2.9v-5.4c0-0.7-0.2-1.2-0.5-1.5c-0.3-0.4-0.7-0.5-1.3-0.5c-0.6,0-1,0.2-1.4,0.6c-0.3,0.4-0.5,0.9-0.5,1.6
		L102.5,110.9L102.5,110.9z"/>
	<path class="st1" d="M114.5,110.9h-3v-9.9h2.9v1.3c0.3-0.5,0.7-0.9,1.2-1.1c0.5-0.3,1.1-0.4,1.7-0.4c1.1,0,2,0.4,2.7,1.1
		c0.6,0.7,1,1.7,1,3v6.1h-2.9v-5.4c0-0.7-0.2-1.2-0.5-1.5c-0.3-0.4-0.7-0.5-1.3-0.5c-0.6,0-1,0.2-1.3,0.6c-0.3,0.4-0.5,0.9-0.5,1.6
		L114.5,110.9L114.5,110.9z"/>
	<path class="st1" d="M132.7,108.6c-0.4,0.8-1,1.5-1.8,1.9c-0.8,0.5-1.7,0.7-2.8,0.7c-0.8,0-1.5-0.1-2.1-0.4s-1.2-0.6-1.7-1.1
		s-0.8-1-1.1-1.6c-0.3-0.6-0.4-1.3-0.4-2.1c0-0.7,0.1-1.4,0.4-2.1s0.6-1.2,1.1-1.7s1-0.8,1.6-1.1c0.6-0.3,1.3-0.4,2-0.4
		s1.4,0.1,2,0.4s1.1,0.6,1.6,1.1c0.4,0.5,0.8,1,1,1.7c0.2,0.6,0.4,1.4,0.4,2.1c0,0.2,0,0.3,0,0.4c0,0.1,0,0.2,0,0.3h-7.3
		c0,0.3,0.1,0.6,0.2,0.8c0.1,0.2,0.3,0.4,0.5,0.6s0.5,0.3,0.7,0.4c0.3,0.1,0.6,0.1,0.9,0.1c0.5,0,1-0.1,1.3-0.3
		c0.3-0.2,0.6-0.5,0.8-0.9L132.7,108.6z M130.2,104.9c-0.1-0.5-0.3-1-0.7-1.3s-0.9-0.5-1.5-0.5c-0.3,0-0.6,0-0.8,0.1
		c-0.3,0.1-0.5,0.2-0.7,0.4c-0.2,0.2-0.4,0.4-0.5,0.6s-0.2,0.4-0.2,0.7C125.8,104.8,130.2,104.8,130.2,104.9z"/>
	<path class="st1" d="M141.1,103.9c-0.2-0.1-0.4-0.1-0.7-0.1c-0.8,0-1.4,0.3-1.9,0.8c-0.5,0.6-0.7,1.3-0.7,2.3v4h-2.9V101h2.9v1.6
		c0.3-0.6,0.6-1,1.1-1.4c0.5-0.4,1.1-0.5,1.7-0.5c0.1,0,0.2,0,0.3,0s0.2,0,0.2,0L141.1,103.9L141.1,103.9z"/>
</g>
</svg>
