<?xml version="1.0" encoding="utf-8"?>
<!-- Generator: Adobe Illustrator 26.0.0, SVG Export Plug-In . SVG Version: 6.00 Build 0)  -->
<svg version="1.1" id="Lag_1" xmlns="http://www.w3.org/2000/svg" xmlns:xlink="http://www.w3.org/1999/xlink" x="0px" y="0px"
	 viewBox="0 0 204 204" style="enable-background:new 0 0 204 204;" xml:space="preserve">
<style type="text/css">
	.st0{fill:url(#SVGID_1_);}
	.st1{fill:#FFFFFF;}
</style>
<linearGradient id="SVGID_1_" gradientUnits="userSpaceOnUse" x1="-10.7684" y1="7.587" x2="198.1915" y2="8.3544" gradientTransform="matrix(1 0 0 1 0 76)">
	<stop  offset="0" style="stop-color:#003B00"/>
	<stop  offset="1" style="stop-color:#00FF2B"/>
</linearGradient>
<path class="st0" d="M13.3,152.3C0.6,130-3.2,103.7,2.7,78.7s20.9-46.8,42.2-61.2S92.1-2.7,117.4,1.2c21.9,3.3,42,13.7,57.4,29.4
	c4.1,4.2,3.3,10.8-1.3,14.5c-4.6,3.6-11.1,2.8-15.3-1.2c-12-11.6-27.3-19.2-44-21.8C94.1,18.9,73.6,23.6,56.7,35
	S27.9,63.7,23.2,83.5s-1.7,40.7,8.4,58.4c3.2,5.8,5.2,9.7,7.6,12.9c6.7,8.8-9.5,19-18,8.4"/>
<g>
	<path class="st1" d="M43.3,95.1v14h-3v-14H43.3z"/>
	<path class="st1" d="M48.9,109.1H46v-9.9h2.9v1.3c0.3-0.5,0.7-0.9,1.2-1.1c0.5-0.3,1.1-0.4,1.7-0.4c1.1,0,2,0.4,2.7,1.1
		c0.6,0.7,1,1.7,1,3v6.1h-2.9v-5.4c0-0.7-0.2-1.2-0.5-1.5c-0.3-0.4-0.7-0.5-1.3-0.5c-0.6,0-1,0.2-1.4,0.6c-0.3,0.4-0.5,0.9-0.5,1.6
		V109.1z"/>
	<path class="st1" d="M61.2,96.3v2.9h2.5v2.4h-2.5v3.6c0,0.5,0.1,0.9,0.4,1.1c0.2,0.2,0.6,0.3,1.1,0.3c0.2,0,0.4,0,0.6-0.1
		c0.2,0,0.4-0.1,0.5-0.2v2.5c-0.2,0.1-0.5,0.2-0.8,0.3c-0.3,0.1-0.7,0.1-1.2,0.1c-1,0-1.9-0.3-2.5-0.9c-0.6-0.6-0.9-1.5-0.9-2.6
		v-4.2h-1.4v-2.4h1.4v-2.9H61.2z"/>
	<path class="st1" d="M74.6,106.7c-0.4,0.8-1,1.5-1.8,1.9c-0.8,0.5-1.7,0.7-2.8,0.7c-0.8,0-1.5-0.1-2.1-0.4
		c-0.6-0.3-1.2-0.6-1.6-1.1s-0.8-1-1.1-1.6c-0.3-0.6-0.4-1.3-0.4-2.1c0-0.7,0.1-1.4,0.4-2.1c0.3-0.6,0.6-1.2,1.1-1.7
		c0.5-0.5,1-0.8,1.6-1.1s1.3-0.4,2-0.4c0.7,0,1.4,0.1,2.1,0.4s1.1,0.6,1.6,1.1c0.4,0.5,0.8,1,1,1.7c0.2,0.6,0.4,1.4,0.4,2.1
		c0,0.2,0,0.3,0,0.4c0,0.1,0,0.2,0,0.3h-7.3c0,0.3,0.1,0.6,0.2,0.8c0.1,0.2,0.3,0.4,0.5,0.6c0.2,0.2,0.5,0.3,0.7,0.4
		s0.6,0.1,0.9,0.1c0.5,0,1-0.1,1.3-0.3c0.3-0.2,0.6-0.5,0.8-0.9L74.6,106.7z M72.1,103.1c-0.1-0.5-0.3-1-0.7-1.3
		c-0.4-0.3-0.9-0.5-1.5-0.5c-0.3,0-0.6,0-0.8,0.1c-0.3,0.1-0.5,0.2-0.7,0.4c-0.2,0.2-0.4,0.4-0.5,0.6c-0.1,0.2-0.2,0.4-0.2,0.7H72.1
		z"/>
	<path class="st1" d="M83.1,102.1c-0.2-0.1-0.4-0.1-0.7-0.1c-0.8,0-1.4,0.3-1.9,0.8s-0.7,1.3-0.7,2.3v4h-2.9v-9.9h2.9v1.6
		c0.3-0.6,0.6-1,1.1-1.4s1.1-0.5,1.7-0.5c0.1,0,0.2,0,0.3,0c0.1,0,0.2,0,0.2,0V102.1z"/>
	<path class="st1" d="M87.7,109.1h-2.9v-9.9h2.9v1.2c0.3-0.5,0.6-0.8,1.1-1.1c0.5-0.3,1-0.4,1.7-0.4c0.7,0,1.3,0.1,1.8,0.5
		c0.5,0.3,0.9,0.7,1.1,1.3c0.3-0.5,0.7-0.9,1.3-1.2c0.5-0.3,1.2-0.5,1.9-0.5c1.1,0,2,0.4,2.6,1.1c0.6,0.7,0.9,1.7,0.9,2.9v6.2h-2.9
		v-5.5c0-0.6-0.1-1.1-0.4-1.4c-0.3-0.3-0.7-0.5-1.2-0.5c-0.5,0-0.9,0.2-1.2,0.6c-0.3,0.4-0.5,0.9-0.5,1.6v5.3H91v-5.5
		c0-0.6-0.1-1.1-0.4-1.5c-0.3-0.3-0.7-0.5-1.2-0.5c-0.5,0-0.9,0.2-1.2,0.6c-0.3,0.4-0.5,0.9-0.5,1.6V109.1z"/>
	<path class="st1" d="M111.8,106.7c-0.4,0.8-1,1.5-1.8,1.9c-0.8,0.5-1.7,0.7-2.8,0.7c-0.8,0-1.5-0.1-2.1-0.4
		c-0.6-0.3-1.2-0.6-1.7-1.1s-0.8-1-1.1-1.6c-0.3-0.6-0.4-1.3-0.4-2.1c0-0.7,0.1-1.4,0.4-2.1s0.6-1.2,1.1-1.7c0.5-0.5,1-0.8,1.6-1.1
		s1.3-0.4,2-0.4c0.7,0,1.4,0.1,2,0.4s1.1,0.6,1.6,1.1c0.4,0.5,0.8,1,1,1.7c0.2,0.6,0.4,1.4,0.4,2.1c0,0.2,0,0.3,0,0.4s0,0.2,0,0.3
		h-7.3c0,0.3,0.1,0.6,0.2,0.8c0.1,0.2,0.3,0.4,0.5,0.6s0.5,0.3,0.7,0.4c0.3,0.1,0.6,0.1,0.9,0.1c0.5,0,1-0.1,1.3-0.3
		c0.3-0.2,0.6-0.5,0.8-0.9L111.8,106.7z M109.3,103.1c-0.1-0.5-0.3-1-0.7-1.3c-0.4-0.3-0.9-0.5-1.5-0.5c-0.3,0-0.6,0-0.8,0.1
		c-0.3,0.1-0.5,0.2-0.7,0.4s-0.4,0.4-0.5,0.6c-0.1,0.2-0.2,0.4-0.2,0.7H109.3z"/>
	<path class="st1" d="M124.3,95.1v14h-2.9v-1.3c-0.3,0.5-0.8,0.9-1.4,1.2s-1.2,0.4-1.8,0.4c-0.7,0-1.3-0.1-1.8-0.4
		c-0.6-0.3-1.1-0.6-1.5-1.1s-0.8-1-1-1.6c-0.2-0.6-0.4-1.3-0.4-2s0.1-1.4,0.4-2c0.2-0.6,0.6-1.2,1-1.6c0.4-0.5,0.9-0.8,1.5-1.1
		c0.6-0.3,1.2-0.4,1.8-0.4c0.7,0,1.3,0.1,1.8,0.4c0.6,0.3,1,0.6,1.4,1.1v-5.4H124.3z M116.4,104.2c0,0.4,0.1,0.7,0.2,1
		c0.1,0.3,0.3,0.6,0.5,0.8s0.5,0.4,0.8,0.5c0.3,0.1,0.6,0.2,1,0.2c0.4,0,0.7-0.1,1-0.2c0.3-0.1,0.6-0.3,0.8-0.5
		c0.2-0.2,0.4-0.5,0.5-0.8c0.1-0.3,0.2-0.6,0.2-1s-0.1-0.7-0.2-1c-0.1-0.3-0.3-0.6-0.5-0.8c-0.2-0.2-0.5-0.4-0.8-0.5s-0.6-0.2-1-0.2
		c-0.4,0-0.7,0.1-1,0.2s-0.6,0.3-0.8,0.5c-0.2,0.2-0.4,0.5-0.5,0.8C116.5,103.5,116.4,103.8,116.4,104.2z"/>
	<path class="st1" d="M130,96.3c0,0.2,0,0.4-0.1,0.7s-0.2,0.4-0.4,0.5s-0.3,0.3-0.5,0.4c-0.2,0.1-0.4,0.1-0.7,0.1s-0.5,0-0.7-0.1
		c-0.2-0.1-0.4-0.2-0.5-0.4s-0.3-0.3-0.4-0.5s-0.1-0.4-0.1-0.7c0-0.2,0-0.4,0.1-0.6c0.1-0.2,0.2-0.4,0.4-0.5
		c0.2-0.2,0.3-0.3,0.5-0.4c0.2-0.1,0.4-0.1,0.7-0.1s0.5,0,0.7,0.1c0.2,0.1,0.4,0.2,0.5,0.4c0.2,0.2,0.3,0.3,0.4,0.5
		C130,95.9,130,96.1,130,96.3z M126.8,109.1v-9.9h2.9v9.9H126.8z"/>
	<path class="st1" d="M142.5,99.2v9.9h-2.9v-1.3c-0.3,0.5-0.8,0.9-1.4,1.2s-1.2,0.4-1.8,0.4c-0.7,0-1.3-0.1-1.8-0.4
		c-0.6-0.3-1.1-0.6-1.5-1.1s-0.8-1-1-1.6c-0.2-0.6-0.4-1.3-0.4-2s0.1-1.4,0.4-2c0.2-0.6,0.6-1.2,1-1.6c0.4-0.5,0.9-0.8,1.5-1.1
		c0.6-0.3,1.2-0.4,1.8-0.4c0.7,0,1.3,0.1,1.8,0.4c0.6,0.3,1,0.6,1.4,1.1v-1.3H142.5z M134.6,104.2c0,0.4,0.1,0.7,0.2,1
		c0.1,0.3,0.3,0.6,0.5,0.8s0.5,0.4,0.8,0.5c0.3,0.1,0.6,0.2,1,0.2c0.4,0,0.7-0.1,1-0.2c0.3-0.1,0.6-0.3,0.8-0.5
		c0.2-0.2,0.4-0.5,0.5-0.8c0.1-0.3,0.2-0.6,0.2-1s-0.1-0.7-0.2-1c-0.1-0.3-0.3-0.6-0.5-0.8c-0.2-0.2-0.5-0.4-0.8-0.5s-0.6-0.2-1-0.2
		c-0.4,0-0.7,0.1-1,0.2s-0.6,0.3-0.8,0.5c-0.2,0.2-0.4,0.5-0.5,0.8C134.7,103.5,134.6,103.8,134.6,104.2z"/>
	<path class="st1" d="M148.4,96.3v2.9h2.5v2.4h-2.5v3.6c0,0.5,0.1,0.9,0.3,1.1c0.2,0.2,0.6,0.3,1.1,0.3c0.2,0,0.4,0,0.6-0.1
		c0.2,0,0.4-0.1,0.5-0.2v2.5c-0.2,0.1-0.5,0.2-0.8,0.3c-0.3,0.1-0.7,0.1-1.2,0.1c-1,0-1.9-0.3-2.5-0.9c-0.6-0.6-0.9-1.5-0.9-2.6
		v-4.2h-1.4v-2.4h1.4v-2.9H148.4z"/>
	<path class="st1" d="M161.8,106.7c-0.4,0.8-1,1.5-1.8,1.9c-0.8,0.5-1.7,0.7-2.8,0.7c-0.8,0-1.5-0.1-2.1-0.4
		c-0.6-0.3-1.2-0.6-1.7-1.1s-0.8-1-1.1-1.6c-0.3-0.6-0.4-1.3-0.4-2.1c0-0.7,0.1-1.4,0.4-2.1s0.6-1.2,1.1-1.7c0.5-0.5,1-0.8,1.6-1.1
		s1.3-0.4,2-0.4c0.7,0,1.4,0.1,2,0.4s1.1,0.6,1.6,1.1c0.4,0.5,0.8,1,1,1.7c0.2,0.6,0.4,1.4,0.4,2.1c0,0.2,0,0.3,0,0.4s0,0.2,0,0.3
		h-7.3c0,0.3,0.1,0.6,0.2,0.8c0.1,0.2,0.3,0.4,0.5,0.6s0.5,0.3,0.7,0.4c0.3,0.1,0.6,0.1,0.9,0.1c0.5,0,1-0.1,1.3-0.3
		c0.3-0.2,0.6-0.5,0.8-0.9L161.8,106.7z M159.3,103.1c-0.1-0.5-0.3-1-0.7-1.3c-0.4-0.3-0.9-0.5-1.5-0.5c-0.3,0-0.6,0-0.8,0.1
		c-0.3,0.1-0.5,0.2-0.7,0.4s-0.4,0.4-0.5,0.6c-0.1,0.2-0.2,0.4-0.2,0.7H159.3z"/>
</g>
</svg>
