<?xml version="1.0" encoding="utf-8"?>
<!-- Generator: Adobe Illustrator 26.0.0, SVG Export Plug-In . SVG Version: 6.00 Build 0)  -->
<svg version="1.1" id="Lag_1" xmlns="http://www.w3.org/2000/svg" xmlns:xlink="http://www.w3.org/1999/xlink" x="0px" y="0px"
	 viewBox="0 0 204 204" style="enable-background:new 0 0 204 204;" xml:space="preserve">
<style type="text/css">
	.st0{fill:url(#SVGID_1_);}
	.st1{fill:#FFFFFF;}
</style>
<linearGradient id="SVGID_1_" gradientUnits="userSpaceOnUse" x1="-12.4732" y1="25.6494" x2="228.0855" y2="26.5329" gradientTransform="matrix(1 0 0 1 0 76)">
	<stop  offset="0" style="stop-color:#003B00"/>
	<stop  offset="1" style="stop-color:#00FF2B"/>
</linearGradient>
<path class="st0" d="M188.3,69.7c5.5-1.6,11.2,1.9,12.6,7.4c5.3,21,3.8,43.2-4.5,63.5c-9.7,23.8-28,43-51.3,53.9
	s-49.7,12.6-74.2,4.8s-45.1-24.5-57.7-46.9S-3.2,103.7,2.7,78.7s20.9-46.8,42.2-61.2S92.1-2.7,117.4,1.2c21.9,3.3,42,13.7,57.4,29.4
	c4.7,4.8,2.9,13-3.7,15.9c-4.3,1.9-9.4,0.7-12.8-2.6c-12-11.6-27.4-19.3-44-21.9c-20.2-3.1-40.7,1.6-57.6,13S27.9,63.7,23.2,83.5
	s-1.7,40.7,8.4,58.4c10,17.7,26.4,31,45.8,37.2s40.4,4.8,58.9-3.8c18.4-8.6,33-23.9,40.7-42.7c6.4-15.6,7.7-32.7,3.9-48.9
	C179.4,77.8,182.4,71.4,188.3,69.7z"/>
<g>
	<path class="st1" d="M71.3,93.5h8.2v2.7h-5.2v2.8h4.8v2.6h-4.8v3.1h5.3v2.7h-8.3V93.5z"/>
	<path class="st1" d="M86,104.6l-2.1,3h-3.2l3.7-5l-3.5-4.9h3.3l1.9,2.8l1.9-2.8h3.2l-3.5,4.8l3.6,5.1h-3.3L86,104.6z"/>
	<path class="st1" d="M92.9,111.7v-14h2.9V99c0.3-0.5,0.8-0.9,1.4-1.2c0.6-0.3,1.2-0.4,1.8-0.4c0.7,0,1.3,0.1,1.9,0.4
		c0.6,0.3,1.1,0.6,1.5,1.1s0.8,1,1,1.6c0.2,0.6,0.4,1.3,0.4,2.1c0,0.7-0.1,1.4-0.4,2s-0.6,1.2-1,1.6s-0.9,0.8-1.5,1.1
		c-0.6,0.3-1.2,0.4-1.9,0.4c-0.7,0-1.3-0.1-1.8-0.4c-0.6-0.2-1-0.6-1.4-1.1v5.4H92.9z M100.8,102.6c0-0.4-0.1-0.7-0.2-1
		s-0.3-0.6-0.5-0.8c-0.2-0.2-0.5-0.4-0.8-0.5c-0.3-0.1-0.6-0.2-1-0.2c-0.4,0-0.7,0.1-1,0.2c-0.3,0.1-0.6,0.3-0.8,0.5
		c-0.2,0.2-0.4,0.5-0.5,0.8s-0.2,0.6-0.2,1c0,0.4,0.1,0.7,0.2,1s0.3,0.6,0.5,0.8s0.5,0.4,0.8,0.5c0.3,0.1,0.6,0.2,1,0.2
		c0.4,0,0.7-0.1,1-0.2c0.3-0.1,0.6-0.3,0.8-0.5s0.4-0.5,0.5-0.8S100.8,102.9,100.8,102.6z"/>
	<path class="st1" d="M115,105.2c-0.4,0.8-1,1.5-1.8,1.9c-0.8,0.5-1.7,0.7-2.8,0.7c-0.8,0-1.5-0.1-2.1-0.4c-0.6-0.3-1.2-0.6-1.7-1.1
		s-0.8-1-1.1-1.7c-0.3-0.6-0.4-1.3-0.4-2.1c0-0.7,0.1-1.4,0.4-2.1c0.3-0.6,0.6-1.2,1.1-1.7c0.5-0.5,1-0.8,1.6-1.1s1.3-0.4,2-0.4
		c0.7,0,1.4,0.1,2,0.4s1.2,0.6,1.6,1.1c0.4,0.5,0.8,1,1,1.7c0.2,0.6,0.4,1.4,0.4,2.1c0,0.2,0,0.3,0,0.4c0,0.1,0,0.2,0,0.3H108
		c0,0.3,0.1,0.6,0.2,0.8c0.1,0.2,0.3,0.5,0.5,0.6c0.2,0.2,0.5,0.3,0.7,0.4c0.3,0.1,0.6,0.2,0.9,0.2c0.5,0,1-0.1,1.3-0.3
		c0.3-0.2,0.6-0.5,0.8-0.9L115,105.2z M112.5,101.5c-0.1-0.5-0.3-1-0.7-1.3c-0.4-0.3-0.9-0.5-1.5-0.5c-0.3,0-0.6,0-0.8,0.1
		c-0.3,0.1-0.5,0.2-0.7,0.4c-0.2,0.2-0.4,0.4-0.5,0.6c-0.1,0.2-0.2,0.4-0.2,0.7H112.5z"/>
	<path class="st1" d="M123.4,100.5c-0.2-0.1-0.4-0.1-0.7-0.1c-0.8,0-1.4,0.3-1.9,0.8s-0.7,1.3-0.7,2.3v4h-2.9v-9.9h2.9v1.6
		c0.3-0.6,0.6-1,1.1-1.4s1.1-0.5,1.7-0.5c0.1,0,0.2,0,0.3,0c0.1,0,0.2,0,0.2,0V100.5z"/>
	<path class="st1" d="M128.8,94.7v2.9h2.5v2.4h-2.5v3.6c0,0.5,0.1,0.9,0.3,1.1s0.6,0.3,1.1,0.3c0.2,0,0.4,0,0.6-0.1
		c0.2,0,0.4-0.1,0.5-0.2v2.5c-0.2,0.1-0.5,0.2-0.8,0.3c-0.3,0.1-0.7,0.1-1.2,0.1c-1,0-1.9-0.3-2.5-0.9c-0.6-0.6-0.9-1.5-0.9-2.6V100
		h-1.4v-2.4h1.4v-2.9H128.8z"/>
</g>
</svg>
