<?xml version="1.0" encoding="utf-8"?>
<!-- Generator: Adobe Illustrator 26.0.0, SVG Export Plug-In . SVG Version: 6.00 Build 0)  -->
<svg version="1.1" id="Lag_1" xmlns="http://www.w3.org/2000/svg" xmlns:xlink="http://www.w3.org/1999/xlink" x="0px" y="0px"
	 viewBox="0 0 204 204" style="enable-background:new 0 0 204 204;" xml:space="preserve">
<style type="text/css">
	.st0{fill:url(#SVGID_1_);}
	.st1{fill:#E9FFF2;}
</style>
<linearGradient id="SVGID_1_" gradientUnits="userSpaceOnUse" x1="-10.8345" y1="178.3947" x2="198.1252" y2="177.6274" gradientTransform="matrix(1 0 0 -1 0 280)">
	<stop  offset="0" style="stop-color:#003B00"/>
	<stop  offset="1" style="stop-color:#00FF2B"/>
</linearGradient>
<path class="st0" d="M158.9,160.9c13.3-4.6,16.8,4.7,12.7,11.4c-4.6,7.5-15.6,15.5-26.4,22.1c-23.3,10.9-49.7,12.6-74.2,4.8
	s-45.1-24.5-57.7-46.9C0.6,130-3.2,103.7,2.7,78.7s20.9-46.8,42.2-61.2S92.1-2.7,117.4,1.2c21.9,3.3,42,13.7,57.4,29.4
	c4.1,4.2,3.3,10.8-1.3,14.5c-4.6,3.6-11.1,2.8-15.3-1.2c-12-11.6-27.3-19.2-44-21.8C94.1,18.9,73.6,23.6,56.7,35
	S27.9,63.7,23.2,83.5s-1.7,40.7,8.4,58.4c10,17.7,26.4,31,45.8,37.2s40.4,4.8,58.9-3.8"/>
<g>
	<path class="st1" d="M57.7,94.9l5.6,14h-3.1l-1.2-3h-5.3l-1.2,3h-3.1l5.6-14H57.7z M54.6,103.3h3.5l-1.8-4.6L54.6,103.3z"/>
	<path class="st1" d="M74.8,94.9v14h-2.9v-1.3c-0.3,0.5-0.8,0.9-1.4,1.2c-0.6,0.3-1.2,0.4-1.8,0.4c-0.7,0-1.3-0.1-1.9-0.4
		s-1.1-0.6-1.5-1.1s-0.8-1-1-1.6c-0.2-0.6-0.4-1.3-0.4-2s0.1-1.4,0.4-2c0.2-0.6,0.6-1.2,1-1.6c0.4-0.5,0.9-0.8,1.5-1.1
		c0.6-0.3,1.2-0.4,1.9-0.4c0.7,0,1.3,0.1,1.8,0.4c0.6,0.3,1,0.6,1.4,1.1v-5.4h2.9V94.9z M67,104c0,0.4,0.1,0.7,0.2,1
		s0.3,0.6,0.5,0.8s0.5,0.4,0.8,0.5s0.6,0.2,1,0.2s0.7-0.1,1-0.2s0.6-0.3,0.8-0.5c0.2-0.2,0.4-0.5,0.5-0.8s0.2-0.6,0.2-1
		s-0.1-0.7-0.2-1s-0.3-0.6-0.5-0.8c-0.2-0.2-0.5-0.4-0.8-0.5s-0.6-0.2-1-0.2s-0.7,0.1-1,0.2s-0.6,0.3-0.8,0.5
		c-0.2,0.2-0.4,0.5-0.5,0.8S67,103.6,67,104z"/>
	<path class="st1" d="M76.3,99h3.1l2.3,6.2L84,99h3l-4,9.9h-2.7L76.3,99z"/>
	<path class="st1" d="M98.3,99v9.9h-2.9v-1.3c-0.3,0.5-0.8,0.9-1.4,1.2c-0.6,0.3-1.2,0.4-1.8,0.4c-0.7,0-1.3-0.1-1.9-0.4
		s-1.1-0.6-1.5-1.1s-0.8-1-1-1.6s-0.4-1.3-0.4-2s0.1-1.4,0.4-2c0.2-0.6,0.6-1.2,1-1.6c0.4-0.5,0.9-0.8,1.5-1.1
		c0.6-0.3,1.2-0.4,1.9-0.4c0.7,0,1.3,0.1,1.8,0.4c0.6,0.3,1,0.6,1.4,1.1v-1.3h2.9V99z M90.5,104c0,0.4,0.1,0.7,0.2,1
		s0.3,0.6,0.5,0.8s0.5,0.4,0.8,0.5s0.6,0.2,1,0.2s0.7-0.1,1-0.2s0.6-0.3,0.8-0.5c0.2-0.2,0.4-0.5,0.5-0.8s0.2-0.6,0.2-1
		s-0.1-0.7-0.2-1s-0.3-0.6-0.5-0.8c-0.2-0.2-0.5-0.4-0.8-0.5s-0.6-0.2-1-0.2s-0.7,0.1-1,0.2s-0.6,0.3-0.8,0.5
		c-0.2,0.2-0.4,0.5-0.5,0.8S90.5,103.6,90.5,104z"/>
	<path class="st1" d="M103.8,108.9h-2.9V99h2.9v1.3c0.3-0.5,0.7-0.9,1.2-1.1c0.5-0.3,1.1-0.4,1.7-0.4c1.1,0,2,0.4,2.7,1.1
		c0.6,0.7,1,1.7,1,3v6.1h-2.9v-5.4c0-0.7-0.2-1.2-0.5-1.5c-0.3-0.4-0.7-0.5-1.3-0.5c-0.6,0-1,0.2-1.3,0.6s-0.5,0.9-0.5,1.6
		L103.8,108.9L103.8,108.9z"/>
	<path class="st1" d="M112.3,104c0-0.7,0.1-1.4,0.4-2.1s0.6-1.2,1.1-1.7s1-0.8,1.7-1.1s1.4-0.4,2.1-0.4c0.4,0,0.9,0.1,1.3,0.1
		c0.4,0.1,0.8,0.3,1.2,0.5v2.7c-0.7-0.5-1.4-0.7-2.1-0.7c-0.4,0-0.7,0.1-1.1,0.2c-0.3,0.1-0.6,0.3-0.8,0.5c-0.2,0.2-0.4,0.5-0.6,0.8
		c-0.1,0.3-0.2,0.7-0.2,1s0.1,0.7,0.2,1s0.3,0.6,0.6,0.8c0.2,0.2,0.5,0.4,0.8,0.5s0.7,0.2,1.1,0.2s0.8-0.1,1.1-0.2s0.7-0.3,1-0.5
		v2.8c-0.4,0.2-0.8,0.4-1.2,0.5c-0.4,0.1-0.9,0.1-1.3,0.1c-0.8,0-1.5-0.1-2.1-0.4s-1.2-0.6-1.7-1.1s-0.8-1-1.1-1.6
		C112.4,105.5,112.3,104.7,112.3,104z"/>
	<path class="st1" d="M131.3,106.6c-0.4,0.8-1,1.5-1.8,1.9c-0.8,0.5-1.7,0.7-2.8,0.7c-0.8,0-1.5-0.1-2.1-0.4s-1.2-0.6-1.7-1.1
		s-0.8-1-1.1-1.7s-0.4-1.3-0.4-2.1c0-0.7,0.1-1.4,0.4-2.1s0.6-1.2,1.1-1.7s1-0.8,1.6-1.1s1.3-0.4,2-0.4s1.4,0.1,2,0.4
		c0.6,0.3,1.1,0.6,1.6,1.1c0.4,0.5,0.8,1,1,1.7c0.2,0.6,0.4,1.4,0.4,2.1c0,0.2,0,0.3,0,0.4s0,0.2,0,0.3h-7.3c0,0.3,0.1,0.6,0.2,0.8
		c0.1,0.2,0.3,0.5,0.5,0.6c0.2,0.2,0.5,0.3,0.7,0.4c0.3,0.1,0.6,0.2,0.9,0.2c0.5,0,1-0.1,1.3-0.3c0.3-0.2,0.6-0.5,0.8-0.9
		L131.3,106.6z M128.8,102.9c-0.1-0.5-0.3-1-0.7-1.3s-0.9-0.5-1.5-0.5c-0.3,0-0.6,0-0.8,0.1c-0.3,0.1-0.5,0.2-0.7,0.4
		s-0.4,0.4-0.5,0.6s-0.2,0.4-0.2,0.7C124.4,102.9,128.8,102.9,128.8,102.9z"/>
	<path class="st1" d="M143.8,94.9v14h-2.9v-1.3c-0.3,0.5-0.8,0.9-1.4,1.2s-1.2,0.4-1.8,0.4c-0.7,0-1.3-0.1-1.8-0.4
		c-0.6-0.3-1.1-0.6-1.5-1.1s-0.8-1-1-1.6s-0.4-1.3-0.4-2s0.1-1.4,0.4-2c0.2-0.6,0.6-1.2,1-1.6c0.4-0.5,0.9-0.8,1.5-1.1
		c0.6-0.3,1.2-0.4,1.8-0.4c0.7,0,1.3,0.1,1.8,0.4c0.6,0.3,1,0.6,1.4,1.1v-5.4h2.9V94.9z M135.9,104c0,0.4,0.1,0.7,0.2,1
		c0.1,0.3,0.3,0.6,0.5,0.8s0.5,0.4,0.8,0.5s0.6,0.2,1,0.2s0.7-0.1,1-0.2s0.6-0.3,0.8-0.5s0.4-0.5,0.5-0.8s0.2-0.6,0.2-1
		s-0.1-0.7-0.2-1c-0.1-0.3-0.3-0.6-0.5-0.8c-0.2-0.2-0.5-0.4-0.8-0.5s-0.6-0.2-1-0.2s-0.7,0.1-1,0.2s-0.6,0.3-0.8,0.5
		s-0.4,0.5-0.5,0.8C136,103.3,135.9,103.6,135.9,104z"/>
</g>
</svg>
